<?xml version="1.0" encoding="UTF-8"?>
<svg width="650" height="175" version="1.1" viewBox="-.5 -.5 650 175" xmlns="http://www.w3.org/2000/svg">
 <path d="m644.75 35.25h-520m520 25.5h-520" fill="none" pointer-events="stroke" stroke="#fff" stroke-miterlimit="10" stroke-width="4"/>
 <rect x="4.75" y="17.75" width="120" height="60" rx="9" ry="9" fill="#6a00ff" pointer-events="all" stroke="#3700cc"/>
 <text x="64.09375" y="55.385406" fill="#ffffff" font-family="Helvetica" font-size="21.333px" text-anchor="middle">MASTER</text>
 <g stroke="#fff">
  <circle cx="402.75" cy="34.75" r="5" fill="#fff" pointer-events="all"/>
  <circle cx="371.75" cy="59.75" r="5" fill="#fff" pointer-events="all"/>
  <path d="m371.75 112.73v-47.98m30.96 46 0.04-71" fill="none" pointer-events="stroke" stroke-miterlimit="10" stroke-width="4"/>
 </g>
 <rect x="329.75" y="110.75" width="120" height="60" rx="9" ry="9" fill="#60a917" pointer-events="all" stroke="#2d7600"/>
 <text x="389.84375" y="148.38541" fill="#ffffff" font-family="Helvetica" font-size="21.333px" text-anchor="middle">SLAVE</text>
 <g stroke="#fff">
  <circle cx="247.75" cy="34.75" r="5" fill="#fff" pointer-events="all"/>
  <circle cx="216.75" cy="59.75" r="5" fill="#fff" pointer-events="all"/>
  <path d="m216.75 112.73v-47.98m30.96 46 0.04-71" fill="none" pointer-events="stroke" stroke-miterlimit="10" stroke-width="4"/>
 </g>
 <rect x="174.75" y="110.75" width="120" height="60" rx="9" ry="9" fill="#60a917" pointer-events="all" stroke="#2d7600"/>
 <text x="234.84375" y="148.38541" fill="#ffffff" font-family="Helvetica" font-size="21.333px" text-anchor="middle">SLAVE</text>
 <path d="m124.75 2.75h60v30h-60z" fill="none" pointer-events="all"/>
 <text x="154.25" y="22.25" fill="#ffffff" font-family="Helvetica" font-size="18px" text-anchor="middle">SCL</text>
 <path d="m124.75 64.75h60v30h-60z" fill="none" pointer-events="all"/>
 <text x="154.25" y="84.25" fill="#ffffff" font-family="Helvetica" font-size="18px" text-anchor="middle">SDA</text>
 <g stroke="#fff">
  <circle cx="557.75" cy="34.75" r="5" fill="#fff" pointer-events="all"/>
  <circle cx="526.75" cy="59.75" r="5" fill="#fff" pointer-events="all"/>
  <path d="m526.75 112.73v-47.98m30.96 46 0.04-71" fill="none" pointer-events="stroke" stroke-miterlimit="10" stroke-width="4"/>
 </g>
 <rect x="484.75" y="110.75" width="120" height="60" rx="9" ry="9" fill="#60a917" pointer-events="all" stroke="#2d7600"/>
 <text x="544.84375" y="148.38541" fill="#ffffff" font-family="Helvetica" font-size="21.333px" text-anchor="middle">SLAVE</text>
</svg>
